<?xml version="1.0" encoding="utf-8"?>
<!-- Generator: Adobe Illustrator 24.1.0, SVG Export Plug-In . SVG Version: 6.00 Build 0)  -->
<svg version="1.1" id="Capa_1" xmlns="http://www.w3.org/2000/svg" xmlns:xlink="http://www.w3.org/1999/xlink" x="0px" y="0px"
	 viewBox="0 0 100 100" style="enable-background:new 0 0 100 100;" xml:space="preserve">
<path d="M49.9,5.1c-24.9,0-45,20.1-45,45c0,24.9,20.1,45,45,45c24.9,0,45-20.1,45-45C94.9,25.2,74.8,5.1,49.9,5.1z M78.9,53.5
	c0,0-21.5,21.3-21.5,21.3c-1.9,1.9-5,1.9-7,0c-1.9-1.9-1.9-5,0-7l13-12.8h-39c-2.7,0-4.9-2.2-4.9-4.9c0-2.7,2.2-4.9,4.9-4.9h39
	l-13-12.8c-1.9-1.9-1.9-5,0-7c1.9-1.9,5-2,7,0l21.5,21.3C80.8,48.5,80.8,51.6,78.9,53.5z"/>
<g>
</g>
<g>
</g>
<g>
</g>
<g>
</g>
<g>
</g>
<g>
</g>
<g>
</g>
<g>
</g>
<g>
</g>
<g>
</g>
<g>
</g>
</svg>
