<?xml version="1.0" encoding="utf-8"?>
<!-- Generator: Adobe Illustrator 24.1.0, SVG Export Plug-In . SVG Version: 6.00 Build 0)  -->
<svg version="1.1" id="Capa_1" xmlns="http://www.w3.org/2000/svg" xmlns:xlink="http://www.w3.org/1999/xlink" x="0px" y="0px"
	 viewBox="0 0 100 100" style="enable-background:new 0 0 100 100;" xml:space="preserve">
<path d="M49.9,5.1c24.9,0,45,20.1,45,45c0,24.9-20.1,45-45,45c-24.9,0-45-20.1-45-45C4.9,25.2,25.1,5.1,49.9,5.1z M21,53.5
	c0,0,21.5,21.3,21.5,21.3c1.9,1.9,5,1.9,7,0c1.9-1.9,1.9-5,0-7L36.4,55h39c2.7,0,4.9-2.2,4.9-4.9c0-2.7-2.2-4.9-4.9-4.9h-39l13-12.8
	c1.9-1.9,1.9-5,0-7c-1.9-1.9-5-2-7,0L21,46.6C19,48.5,19,51.6,21,53.5z"/>
<g>
</g>
<g>
</g>
<g>
</g>
<g>
</g>
<g>
</g>
<g>
</g>
<g>
</g>
<g>
</g>
<g>
</g>
<g>
</g>
<g>
</g>
</svg>
