<?xml version="1.0" encoding="utf-8"?>
<!-- Generator: Adobe Illustrator 24.1.0, SVG Export Plug-In . SVG Version: 6.00 Build 0)  -->
<svg version="1.1" id="Capa_1" xmlns="http://www.w3.org/2000/svg" xmlns:xlink="http://www.w3.org/1999/xlink" x="0px" y="0px"
	 viewBox="0 0 281.5 281.5" style="enable-background:new 0 0 281.5 281.5;" xml:space="preserve">
<style type="text/css">
	.st0{fill:#FFFFFF;}
</style>
<g>
	<path class="st0" d="M140.7,0C63.1,0,0,63.1,0,140.7s63.1,140.7,140.7,140.7s140.7-63.1,140.7-140.7S218.4,0,140.7,0z M140.7,263.5
		C73.1,263.5,18,208.4,18,140.7S73.1,18,140.7,18s122.7,55.1,122.7,122.7S208.4,263.5,140.7,263.5z"/>
	<path class="st0" d="M210.9,131.7h-61.2V70.6c0-5-4-9-9-9s-9,4-9,9v61.2H70.6c-5,0-9,4-9,9s4,9,9,9h61.2v61.2c0,5,4,9,9,9s9-4,9-9
		v-61.2h61.2c5,0,9-4,9-9S215.9,131.7,210.9,131.7z"/>
</g>
</svg>
