	<svg version="1.1" id="svg1" viewBox="0 0 750 500" style="enable-background:new 0 0 750 500;" xml:space="preserve">
	<style type="text/css">
		#svg1 .st0{fill:transparent;stroke:#211D35;stroke-miterlimit:10;}
		#svg1 .st1{fill:transparent;stroke:#211D35;stroke-miterlimit:10;}
		#svg1 .st2{fill:transparent;stroke:#211D35;stroke-miterlimit:10;}
		#svg1 .st3{fill:transparent;stroke:#211D35;stroke-miterlimit:10;}
		#svg1 .st4{fill:transparent;stroke:#211D35;stroke-miterlimit:10;}
		#svg1 .st5{fill:transparent;stroke:#211D35;stroke-miterlimit:10;}
		#svg1 .st6{fill:transparent;stroke:#211D35;stroke-miterlimit:10;}
		#svg1 .st7{fill:transparent;stroke:#211D35;stroke-miterlimit:10;}
		#svg1 .st8{fill:transparent;stroke:#211D35;stroke-miterlimit:10;}
		#svg1 .st9{fill:transparent;stroke:#211D35;stroke-miterlimit:10;}
		#svg1 .st10{fill:transparent;stroke:#211D35;stroke-miterlimit:10;}
		#svg1 .st11{fill:transparent;stroke:#211D35;stroke-miterlimit:10;}
		#svg1 .st12{fill:transparent;stroke:#211D35;stroke-miterlimit:10;}
		#svg1 .st13{fill:transparent;stroke:#211D35;stroke-miterlimit:10;}
		#svg1 .st14{fill:transparent;stroke:#211D35;stroke-miterlimit:10;}
		#svg1 .st15{fill:transparent;stroke:#211D35;stroke-miterlimit:10;}
		#svg1 .st16{fill:transparent;stroke:#211D35;stroke-miterlimit:10;}
		#svg1 .st17{fill:transparent;stroke:#211D35;stroke-miterlimit:10;}
		#svg1 .st18{fill:transparent;stroke:#211D35;stroke-miterlimit:10;}
		#svg1 .st19{fill:transparent;stroke:#211D35;stroke-miterlimit:10;}
		#svg1 .st20{fill:transparent;stroke:#211D35;stroke-miterlimit:10;}
	</style>
	<g>
		<path class="st0" d="M670.1,224.8H549.7c1.1,0,2.2-0.1,3.3-0.1c-16.3-1.4-29-13.2-29-27.4v0c0-14.3,12.7-26,29-27.4
			c-1.1-0.1-2.2-0.1-3.3-0.1c17.9,0,32.3-12.3,32.3-27.6l0,0c0-15.2-14.5-27.6-32.3-27.6H134.9c-17.9,0-32.3,12.3-32.3,27.6l0,0
			c0,15.2,14.5,27.6,32.3,27.6h-8.3c17.9,0,32.3,12.3,32.3,27.6v0c0,15.2-14.5,27.6-32.3,27.6H91.8c-26.9,0-48.7,18.6-48.7,41.5l0,0
			c0,22.9,21.8,41.5,48.7,41.5h34.9c17.9,0,32.3,12.4,32.3,27.6v0c0,15.2-14.5,27.6-32.3,27.6h8.3c-17.9,0-32.3,12.3-32.3,27.6v0
			c0,15.2,14.5,27.6,32.3,27.6h414.8c17.9,0,32.3-12.3,32.3-27.6v0c0-15.2-14.5-27.6-32.3-27.6c1.1,0,2.2-0.1,3.3-0.1
			c-16.3-1.4-29-13.2-29-27.4v0c0-14.3,12.7-26,29-27.4c-1.1-0.1-2.2-0.1-3.3-0.1h120.4c26.9,0,48.7-18.6,48.7-41.5l0,0
			C718.8,243.4,697,224.8,670.1,224.8z"/>
		<g>
			<path class="st1" d="M538.9,388H223.1c-9.1,0-16.4-7.4-16.4-16.4V170.3c0-9.1,7.4-16.4,16.4-16.4h315.8c9.1,0,16.4,7.4,16.4,16.4
				v201.3C555.3,380.7,547.9,388,538.9,388z"/>
			<path class="st2" d="M531.5,383h-301c-9.1,0-16.4-7.4-16.4-16.4V175.3c0-9.1,7.4-16.4,16.4-16.4h301c9.1,0,16.4,7.4,16.4,16.4
				v191.3C547.9,375.7,540.5,383,531.5,383z"/>
			<rect x="220" y="173.9" class="st0" width="317.4" height="10.4"/>
			<rect x="284.7" y="328.5" class="st0" width="188.1" height="4.5"/>
			<rect x="284.7" y="340.1" class="st0" width="188.1" height="4.5"/>
			<rect x="284.7" y="351.6" class="st0" width="188.1" height="4.5"/>
			<rect x="347.8" y="388" class="st3" width="61.9" height="26"/>
			<path class="st4" d="M418.7,422.4h-79.9v-1c0-4,3.3-7.3,7.3-7.3h65.3c4,0,7.3,3.3,7.3,7.3V422.4z"/>
			<path class="st4" d="M53.1,144.5c0,0,11.1-26.1,19-26.1c7.9,0,11.5,7.2,15.5,5.9c4.1-1.2,12.2-36,24.5-34.7
				c12.3,1.3,10.5,30.5,22.8,32.7c12.3,2.3,19.5-17.6,33.2-14.3s16.6,28.4,20.2,34.5c3.6,6.2,9.3,10.5,1.8,10.5
				C182.6,153.1,36.2,152.8,53.1,144.5z"/>
			<path class="st4" d="M491.6,120.4c0,0,12-8.6,23.4-32.2c11.3-23.6,24.3-22.1,28.7-20.8c4.4,1.4,11,17,16.5,31.1
				c5.6,14.1,12.6,8.5,16.6-3.9c4-12.4,12.9-4.5,14.1,0.4c1.2,4.9,3.3,14,11.7,11.1c8.3-2.9,11.2-0.9,12.1,3.6
				c0.9,4.5,5.9,7,24.1,8.4c18.2,1.4,25.9,8.9,13.2,11.1C639.1,131.5,450.5,130.4,491.6,120.4z"/>
		</g>
		<g>
			<path class="st5" d="M505.6,274.3v35.4c0,0.9,0.7,1.5,1.5,1.5l0,0c0.9,0,1.5-0.7,1.5-1.5v-17.2c0-1.6,1.3-2.8,2.8-2.8l0,0
				c1.6,0,2.8,1.3,2.8,2.8v23.6c0,1.9,1.6,3.5,3.5,3.5l0,0c1.9,0,3.5-1.6,3.5-3.5v-22.2c0-1.8,1.5-3.3,3.3-3.3l0,0
				c1.8,0,3.3,1.5,3.3,3.3l0,0c0,1.7,1.3,3,3,3h1.2c2.3,0,4.2-1.9,4.2-4.2v-18.5H505.6z"/>
			<path class="st6" d="M535.9,274.3h-29.2c-1,0-1.8-0.8-1.8-1.8V269c0-1,0.8-1.8,1.8-1.8h29.2c1,0,1.8,0.8,1.8,1.8v3.5
				C537.7,273.5,536.9,274.3,535.9,274.3z"/>
		</g>
		<g>
			
				<rect x="267" y="204.4" transform="matrix(0.9783 0.207 -0.207 0.9783 62.4393 -70.9404)" class="st7" width="206.4" height="117"/>
			
				<rect x="278.7" y="198.1" transform="matrix(0.9783 0.207 -0.207 0.9783 58.0203 -57.071)" class="st8" width="46.1" height="101.2"/>
			
				<rect x="343.4" y="222.9" transform="matrix(0.9783 0.207 -0.207 0.9783 56.1557 -79.3447)" class="st8" width="127.6" height="11.5"/>
			
				<rect x="339.2" y="243" transform="matrix(0.9783 0.207 -0.207 0.9783 60.2135 -78.0326)" class="st8" width="127.6" height="11.5"/>
			
				<rect x="334.9" y="263.5" transform="matrix(0.9783 0.207 -0.207 0.9783 64.3645 -76.6903)" class="st8" width="127.6" height="11.5"/>
			
				<rect x="330.2" y="285.4" transform="matrix(0.9783 0.207 -0.207 0.9783 68.7943 -75.2578)" class="st8" width="127.6" height="11.5"/>
		</g>
		<g>
			<g>
				<path class="st9" d="M592.7,293.9c0,0-2.1,8.2-3.1,13c-1,4.8,7.6,6.8,7.6,6.8l-0.7,4.2c0,0,4.7-0.2,6.2,2.1l2.4-9.5
					c0,0,2.5-2.6,2-5.8c-0.5-3.2-3.8-2.8-5,0c0,0-3.7-4-3.7-9.3C598.3,295.3,595.8,296.7,592.7,293.9z"/>
				<path class="st10" d="M611.7,295.2c0,0,1.1-3.2-1.1-5.6c-2.2-2.4-6.6-2.5-9.9-2c-0.6,0.1-3.1-0.1-6.4-1.2c-3.3-1.1-6.9,0-7.7,3.5
					c-0.7,3.5,5.1,8.1,5.1,8.1l0,0c0.6-2.4,1-4.2,1-4.2c3.1,2.8,5.6,1.5,5.6,1.5c0,5.3,3.7,9.3,3.7,9.3c1.1-2.8,4.5-3.2,5,0
					c0.5,3.2-2,5.8-2,5.8s6.2-3.2,7.7-7.7S611.7,295.2,611.7,295.2z"/>
				<path class="st5" d="M596.4,317.9c0,0-6.9-0.6-12.3-1.7s-31.2-11.8-31.2-11.8s-2.2,2.4-2.2,5.2c0,0,16.6,11.3,22.9,13.8
					c6.3,2.5,13.4,6.9,13.4,6.9s-0.5,19.2,0,26c0.5,6.8,0.5,9.2,0.5,9.2s11.9,1.1,21.2-1.9c0,0-1-23.4-1.7-29.9s-4.4-13.8-4.4-13.8
					S600.4,317,596.4,317.9z"/>
				<path class="st11" d="M586.8,340.2c0.1-5.4,0.2-9.9,0.2-9.9s-0.9-0.5-2.3-1.4c0,0-8.7,7.6-9.4,7.7c-0.6,0.1-8.7-7.7-8.7-7.7
					c-1.7,0.6-4.2,2.7-4.2,2.7s9,13.8,11.8,14.4C577,346.6,586.8,340.2,586.8,340.2L586.8,340.2z"/>
				<path class="st9" d="M564.5,322c0,0,1.4,5.3,2.2,6.9c0,0-2.7,1.2-4.2,2.7c0,0-2.8-1.6-4.6-4.8c-1.8-3.2-2.3-4.2,1.4-6.1
					C563,318.8,563.7,319.3,564.5,322z"/>
				<polygon class="st11" points="587,330.3 590.6,332.4 587,334.6 			"/>
				<path class="st9" d="M574.1,429.1l2.5,9.3c0,0,2,2.6,6,0.7l-1.9-9.9H574.1z"/>
				<path class="st12" d="M566.2,445.3c0,0,0.6-1.5,3.7-2.1c3.2-0.7,6.7-4.8,6.7-4.8s2,2.7,6,0.7c0,0,1.4,3.7,1.1,6.3
					C583.7,445.3,566.8,447.6,566.2,445.3z"/>
				<path class="st9" d="M608.9,428.1l2.5,9.3c0,0,2,2.6,6,0.7l-1.6-11.2L608.9,428.1z"/>
				<path class="st12" d="M601,444.4c0,0,0.6-1.5,3.7-2.1c3.2-0.7,6.7-4.8,6.7-4.8s2,2.7,6,0.7c0,0,1.4,3.7,1.1,6.3
					C618.6,444.4,601.7,446.6,601,444.4z"/>
				<path class="st13" d="M609,429.1c0,0,4-0.7,6.8-2.2c0,0-4.9-28.6-6.8-36.4c-1.9-7.8-4.1-19.1-4.1-19.1L591,388
					C591,388,606.1,418.3,609,429.1z"/>
				<path class="st1" d="M608.7,363.6c-9.3,3-21.2,1.9-21.2,1.9s-17,32.6-18.1,37.6c-1.1,5,4.6,26,4.6,26s3.5,2.2,6.5,0.7
					c0,0-0.6-21,0.2-25.1c0.7-4.1,15.8-19.3,23-26.9C611,370.2,608.7,363.6,608.7,363.6z"/>
				<polygon class="st14" points="521.2,274.3 560.4,325.1 562.8,323.1 526,274.3 			"/>
				<path class="st9" d="M552.9,304.4c0,0-3.9-2.7-5.6-3.7s-4-3.4-4-3.4s-0.3,1.9-1.1,2.2c-0.8,0.4-3.4,1.2-3.7,2
					c-0.3,0.7,0.5,2.2,0.7,3c0.3,0.7-0.4,1.8,0.2,2.5c0.6,0.7,0.3,2,1.2,2.1c0.9,0.1,6.2-0.1,7.5,0c1.3,0.1,2.6,0.6,2.6,0.6
					S550.6,307.1,552.9,304.4z"/>
				<path class="st9" d="M562.5,329.3c0,0-2.3-2.8,0-4.6c0,0-3.8,0.2-2.9-1.1c0.9-1.3,2.9-2.5,4.5-2.7l2,6.6L562.5,329.3z"/>
			</g>
			<g>
				<path class="st9" d="M287.7,106.9c0,0-6.1-0.5-8-1c0,0-0.7,3.2-2.1,5.2c0,0,2.3,2.8,6.2,4.1c3.9,1.3,5,1.7,6.4-2.8
					C291.6,107.9,290.9,107.2,287.7,106.9z"/>
				<path class="st10" d="M289.4,61.6c0,0-1.7-7.7-8.9-9.5c-7.3-1.9-19.9,2.5-19.9,13.9c0,11.4,2.1,26.8,2.1,26.8s11.6,2.3,18.9,0
					c7.3-2.3,7.3-2.3,7.3-2.3s-3.3-7.7-2.5-12.9C287.1,72.4,292.4,67.4,289.4,61.6z"/>
				<path class="st9" d="M286.7,64.3c0,0-10.4,3.7-15.8,0c0,0,1.2-3.1-1.5-4.4c-2.7-1.2-6.6,3.5-5.8,8.5l-6.4,4.2
					c0,0,4.4,0.9,5.8,5.7l4.8-2.5c0,0,0.8,4.4,5.2,4.1C277.4,79.9,283.8,71.8,286.7,64.3z"/>
				<path class="st15" d="M226.5,91.5c0,0,21.4-19.7,30.7-18.8c0,0,5,0.7,5.8,5.7l1.9,20.1l10.5,14.1c0,0-0.8,3.7-3.5,4.4
					c0,0-13.9-11.4-14.7-14.1c-0.8-2.7-1.5-9.2-1.5-9.2s-5,1.7-7.1,5.2c-2.1,3.5-2.5,8.5-2.5,8.5S224.9,103.9,226.5,91.5z"/>
				<path class="st8" d="M246.2,107.5c0,0,11,10,15.1,13.7c4.1,3.7,5,27.4,5,27.4s-1.7,1.9-5.8,1c0,0-3.7-10.4-4.3-19.1l-17.7-10.2
					l-0.9-15.4L246.2,107.5z"/>
				<path class="st12" d="M237.6,105L237.6,105c-5.7-2.3-12-6.5-11.1-13.5c0,0-7.1,5.8-6,15.8c1,10,11,20.3,11,20.3
					c-4.1,7.1-7.9,24.9-7.9,24.9c0.2,3.5,4.8,2.5,4.8,2.5s14.9-23.2,14.1-27.4C241.7,123.4,237.6,105,237.6,105z"/>
				<path class="st16" d="M255.8,93.7v-8.5L252,95.7C252,95.7,253.7,94.6,255.8,93.7z"/>
				<path class="st16" d="M264.9,98.5l9.1,12.2l3.1,0.9c2.6-3.3,2.7-6.7,2.7-6.7L264.9,98.5z"/>
				<path class="st7" d="M223.6,152.5c0,0-2.1,2.7-1.5,7.5c0,0,10.4,1.5,14.8,0.7c0,0-3.7-3.3-8.5-5.7
					C228.4,155,224.5,156.3,223.6,152.5z"/>
				<path class="st7" d="M260.6,149.6v5.5c0,0,8.4,1.5,15.5,0c0,0-2.5-2.6-5.8-3.7c-3.3-1.1-3.9-2.9-3.9-2.9S264.3,150.2,260.6,149.6
					z"/>
				<path class="st9" d="M272,117c0,0,2.1,2.9,4.1,3s1.7,1.4,3.2,1.5c1.5,0.1,2.5,0.1,3.7-1.7c1.2-1.8,0.4,0.1,1.2-1.8
					c0.8-1.9-8.8-5.5-8.8-5.5S274.7,115.3,272,117z"/>
				<line class="st17" x1="284.4" y1="189.7" x2="284.4" y2="107.4"/>
				<path class="st9" d="M280.2,110.6c0,0,3.6,1.9,5-0.9c0,0,0.6,4.3,1.8,3c1.2-1.3,2.1-3.7,2.1-5.5l-7.7-0.9L280.2,110.6z"/>
			</g>
		</g>
		<g>
			<g>
				<rect x="488.2" y="415.5" class="st18" width="23.6" height="32.9"/>
				<polygon class="st19" points="488.2,448.3 511.8,448.3 488.2,415.5 			"/>
				<path class="st5" d="M488.4,414h23c0.8,0,1.5,0.7,1.5,1.5v10.2c0,0-0.2,3.2-2.5,1.9c-2.4-1.3-1.3-5.6-2.7-6.6
					c-1.8-1.3-5.2,3.2-3.7,7.1c0.9,2.5-0.5,4.5-3.1,4.1c-3.9-0.6-2.1-8.7-3.9-10.6c-1.6-1.8-4.8-1.3-5.4,3.9
					c-0.6,5.2-3.5,6.2-4.6,5.2c-0.9-0.8-0.3-11.4-0.1-15.3C486.9,414.7,487.6,414,488.4,414z"/>
			</g>
			<g>
				<g>
					<path class="st20" d="M215.3,441c-0.1,0-0.1,0-0.2,0c-0.9-0.1-1.6-0.9-1.5-1.9l22.8-222.5c0.1-0.9,0.9-1.6,1.9-1.5
						c0.9,0.1,1.6,0.9,1.5,1.9L217,439.5C216.9,440.4,216.2,441,215.3,441z"/>
				</g>
				<g>
					<path class="st20" d="M284.7,441c-0.9,0-1.6-0.7-1.7-1.5L260.2,217c-0.1-0.9,0.6-1.8,1.5-1.9c0.9-0.1,1.8,0.6,1.9,1.5
						l22.8,222.5c0.1,0.9-0.6,1.8-1.5,1.9C284.8,441,284.8,441,284.7,441z"/>
				</g>
				<g>
					<path class="st20" d="M264.3,242.7h-28.6c-0.9,0-1.7-0.8-1.7-1.7s0.8-1.7,1.7-1.7h28.6c0.9,0,1.7,0.8,1.7,1.7
						S265.2,242.7,264.3,242.7z"/>
				</g>
				<g>
					<path class="st20" d="M267.4,271.9h-34.7c-0.9,0-1.7-0.8-1.7-1.7c0-0.9,0.8-1.7,1.7-1.7h34.7c0.9,0,1.7,0.8,1.7,1.7
						C269.1,271.1,268.3,271.9,267.4,271.9z"/>
				</g>
				<g>
					<path class="st20" d="M271.3,308.5h-42.3c-0.9,0-1.7-0.8-1.7-1.7c0-0.9,0.8-1.7,1.7-1.7h42.3c0.9,0,1.7,0.8,1.7,1.7
						C273,307.7,272.2,308.5,271.3,308.5z"/>
				</g>
				<g>
					<path class="st20" d="M275.3,349.8h-50.6c-0.9,0-1.7-0.8-1.7-1.7c0-0.9,0.8-1.7,1.7-1.7h50.6c0.9,0,1.7,0.8,1.7,1.7
						C277,349,276.2,349.8,275.3,349.8z"/>
				</g>
				<g>
					<path class="st20" d="M281.3,408.3h-62.6c-0.9,0-1.7-0.8-1.7-1.7c0-0.9,0.8-1.7,1.7-1.7h62.6c0.9,0,1.7,0.8,1.7,1.7
						C283,407.5,282.2,408.3,281.3,408.3z"/>
				</g>
			</g>
		</g>
		<g>
			
				<ellipse transform="matrix(0.9316 -0.3635 0.3635 0.9316 -62.5311 52.9031)" class="st0" cx="109.3" cy="192.6" rx="13.4" ry="13.4"/>
			
				<ellipse transform="matrix(0.2309 -0.973 0.973 0.2309 262.4688 714.0029)" class="st0" cx="582.9" cy="191" rx="11.8" ry="11.8"/>
			<circle class="st0" cx="692.7" cy="340.5" r="7.5"/>
			<circle class="st0" cx="65.8" cy="349.1" r="11.6"/>
		</g>
	</g>
	</svg>